<svg width="51" height="50" viewBox="0 0 51 50" fill="none" xmlns="http://www.w3.org/2000/svg">
<path d="M25.5 0C32.1304 0 38.4893 2.63392 43.1777 7.32233C47.8661 12.0107 50.5 18.3696 50.5 25C50.5 31.6304 47.8661 37.9893 43.1777 42.6777C38.4893 47.3661 32.1304 50 25.5 50C18.8696 50 12.5107 47.3661 7.82233 42.6777C3.13392 37.9893 0.5 31.6304 0.5 25C0.5 18.3696 3.13392 12.0107 7.82233 7.32233C12.5107 2.63392 18.8696 0 25.5 0ZM23.1562 11.7188V25C23.1562 25.7812 23.5469 26.5137 24.2012 26.9531L33.5762 33.2031C34.6504 33.9258 36.1055 33.6328 36.8281 32.5488C37.5508 31.4648 37.2578 30.0195 36.1738 29.2969L27.8438 23.75V11.7188C27.8438 10.4199 26.7988 9.375 25.5 9.375C24.2012 9.375 23.1562 10.4199 23.1562 11.7188Z" fill="#7783C8"/>
</svg>
