<svg width="50" height="50" viewBox="0 0 50 50" fill="none" xmlns="http://www.w3.org/2000/svg">
<rect x="0.5" y="0.5" width="49" height="49" rx="19.5" fill="white" stroke="#C4CFE3"/>
<path d="M12.5321 36.1484H17.1644V24.8987L10.5469 19.9356V34.1632C10.5469 35.2617 11.4369 36.1484 12.5321 36.1484Z" fill="#4285F4"/>
<path d="M33.0459 36.1484H37.6781C38.7766 36.1484 39.6634 35.2584 39.6634 34.1632V19.9356L33.0459 24.8987" fill="#34A853"/>
<path d="M33.0459 16.2961V24.8988L39.6634 19.9357V17.2887C39.6634 14.8337 36.8609 13.4341 34.8988 14.9065" fill="#FBBC04"/>
<path d="M17.1641 24.8987V16.296L25.105 22.2517L33.046 16.296V24.8987L25.105 30.8544" fill="#EA4335"/>
<path d="M10.5469 17.2887V19.9357L17.1644 24.8988V16.2961L15.3115 14.9065C13.3461 13.4341 10.5469 14.8337 10.5469 17.2887Z" fill="#C5221F"/>
</svg>
