<svg width="15" height="11" viewBox="0 0 15 11" fill="none" xmlns="http://www.w3.org/2000/svg">
<path d="M1.51542 10.8923H3.73889V5.4924L0.5625 3.11011V9.93934C0.5625 10.4666 0.989724 10.8923 1.51542 10.8923Z" fill="white"/>
<path d="M11.3623 10.8923H13.5858C14.1131 10.8923 14.5387 10.465 14.5387 9.93934V3.11011L11.3623 5.4924" fill="white"/>
<path d="M11.3623 1.36321V5.49252L14.5387 3.11023V1.83967C14.5387 0.661231 13.1935 -0.0105756 12.2517 0.696171" fill="white"/>
<path d="M3.73926 5.49247V1.36316L7.55092 4.22191L11.3626 1.36316V5.49247L7.55092 8.35121" fill="white"/>
<path d="M0.5625 1.83967V3.11023L3.73889 5.49252V1.36321L2.8495 0.696171C1.90611 -0.0105756 0.5625 0.661231 0.5625 1.83967Z" fill="white"/>
</svg>
