<svg width="13" height="13" viewBox="0 0 13 13" fill="none" xmlns="http://www.w3.org/2000/svg">
<path d="M4.50272 6.57491C4.50272 5.4694 5.39841 4.57298 6.5036 4.57298C7.60879 4.57298 8.50496 5.4694 8.50496 6.57491C8.50496 7.68042 7.60879 8.57685 6.5036 8.57685C5.39841 8.57685 4.50272 7.68042 4.50272 6.57491ZM3.42082 6.57491C3.42082 8.27803 4.80098 9.65858 6.5036 9.65858C8.20622 9.65858 9.58638 8.27803 9.58638 6.57491C9.58638 4.8718 8.20622 3.49125 6.5036 3.49125C4.80098 3.49125 3.42082 4.8718 3.42082 6.57491ZM8.98799 3.36898C8.98793 3.51151 9.03013 3.65085 9.10924 3.76939C9.18836 3.88793 9.30083 3.98034 9.43245 4.03494C9.56407 4.08954 9.70892 4.10387 9.84869 4.07612C9.98845 4.04837 10.1168 3.97978 10.2176 3.87904C10.3184 3.7783 10.3871 3.64992 10.415 3.51014C10.4428 3.37036 10.4286 3.22546 10.3741 3.09376C10.3196 2.96205 10.2274 2.84947 10.1089 2.77024C9.99047 2.691 9.85119 2.64868 9.70871 2.64863H9.70842C9.51743 2.64872 9.33428 2.72463 9.1992 2.85969C9.06412 2.99476 8.98815 3.17793 8.98799 3.36898ZM4.07815 11.4631C3.49282 11.4364 3.17468 11.3389 2.96325 11.2565C2.68296 11.1474 2.48297 11.0174 2.2727 10.8073C2.06243 10.5973 1.93227 10.3974 1.82363 10.1171C1.74121 9.90566 1.64371 9.58733 1.6171 9.00184C1.588 8.36883 1.58219 8.17867 1.58219 6.57496C1.58219 4.97125 1.58848 4.78162 1.6171 4.14809C1.64376 3.56259 1.74198 3.24488 1.82363 3.03287C1.93275 2.75249 2.06271 2.55245 2.2727 2.34211C2.48268 2.13178 2.68248 2.00159 2.96325 1.89292C3.17458 1.81047 3.49282 1.71295 4.07815 1.68633C4.71097 1.65722 4.90107 1.6514 6.5036 1.6514C8.10613 1.6514 8.29642 1.6577 8.92978 1.68633C9.5151 1.713 9.83272 1.81124 10.0447 1.89292C10.325 2.00159 10.525 2.13207 10.7352 2.34211C10.9455 2.55216 11.0752 2.75249 11.1843 3.03287C11.2667 3.24426 11.3642 3.56259 11.3908 4.14809C11.4199 4.78162 11.4257 4.97125 11.4257 6.57496C11.4257 8.17867 11.4199 8.3683 11.3908 9.00184C11.3642 9.58733 11.2662 9.90557 11.1843 10.1171C11.0752 10.3974 10.9452 10.5975 10.7352 10.8073C10.5252 11.0172 10.325 11.1474 10.0447 11.2565C9.83334 11.339 9.5151 11.4365 8.92978 11.4631C8.29695 11.4922 8.10685 11.498 6.5036 11.498C4.90035 11.498 4.71078 11.4922 4.07815 11.4631ZM4.02844 0.605948C3.38932 0.635062 2.95259 0.736432 2.57119 0.884884C2.17621 1.03819 1.84183 1.24386 1.50769 1.57756C1.17356 1.91127 0.968473 2.24627 0.815213 2.64137C0.666804 3.02312 0.565463 3.45973 0.536358 4.09903C0.506772 4.73935 0.5 4.94406 0.5 6.57491C0.5 8.20577 0.506772 8.41048 0.536358 9.05079C0.565463 9.69014 0.666804 10.1267 0.815213 10.5085C0.968473 10.9033 1.1736 11.2387 1.50769 11.5723C1.84178 11.9058 2.17621 12.1112 2.57119 12.2649C2.95331 12.4134 3.38932 12.5148 4.02844 12.5439C4.6689 12.573 4.87321 12.5802 6.5036 12.5802C8.13399 12.5802 8.33864 12.5735 8.97876 12.5439C9.61793 12.5148 10.0544 12.4134 10.436 12.2649C10.8308 12.1112 11.1654 11.906 11.4995 11.5723C11.8336 11.2386 12.0383 10.9033 12.192 10.5085C12.3404 10.1267 12.4422 9.6901 12.4708 9.05079C12.4999 8.41 12.5067 8.20577 12.5067 6.57491C12.5067 4.94406 12.4999 4.73935 12.4708 4.09903C12.4417 3.45968 12.3404 3.02288 12.192 2.64137C12.0383 2.24651 11.8331 1.9118 11.4995 1.57756C11.1659 1.24333 10.8308 1.03819 10.4365 0.884884C10.0544 0.736432 9.61788 0.634582 8.97925 0.605948C8.33912 0.576835 8.13447 0.56958 6.50408 0.56958C4.87369 0.56958 4.6689 0.576354 4.02844 0.605948Z" fill="white"/>
</svg>
