<svg width="50" height="50" viewBox="0 0 50 50" fill="none" xmlns="http://www.w3.org/2000/svg">
<rect width="50" height="50" rx="20" fill="url(#paint0_linear_88_651)"/>
<path d="M20.839 25.0641C20.839 22.7609 22.705 20.8934 25.0075 20.8934C27.31 20.8934 29.177 22.7609 29.177 25.0641C29.177 27.3672 27.31 29.2348 25.0075 29.2348C22.705 29.2348 20.839 27.3672 20.839 25.0641ZM18.585 25.0641C18.585 28.6122 21.4604 31.4884 25.0075 31.4884C28.5546 31.4884 31.43 28.6122 31.43 25.0641C31.43 21.5159 28.5546 18.6398 25.0075 18.6398C21.4604 18.6398 18.585 21.5159 18.585 25.0641ZM30.1833 18.385C30.1832 18.682 30.2711 18.9723 30.4359 19.2192C30.6007 19.4662 30.8351 19.6587 31.1093 19.7725C31.3835 19.8862 31.6853 19.916 31.9764 19.8582C32.2676 19.8004 32.5351 19.6575 32.7451 19.4477C32.9551 19.2378 33.0981 18.9703 33.1561 18.6791C33.2142 18.3879 33.1846 18.086 33.0711 17.8117C32.9576 17.5373 32.7653 17.3027 32.5186 17.1377C32.2718 16.9726 31.9817 16.8844 31.6848 16.8843H31.6842C31.2863 16.8845 30.9047 17.0426 30.6233 17.324C30.3419 17.6054 30.1836 17.987 30.1833 18.385ZM19.9545 35.2478C18.735 35.1923 18.0722 34.9891 17.6318 34.8174C17.0478 34.59 16.6312 34.3192 16.1931 33.8816C15.7551 33.444 15.4839 33.0276 15.2576 32.4435C15.0859 32.0031 14.8827 31.3399 14.8273 30.1202C14.7667 28.8014 14.7546 28.4052 14.7546 25.0642C14.7546 21.7231 14.7677 21.328 14.8273 20.0082C14.8828 18.7884 15.0875 18.1265 15.2576 17.6848C15.4849 17.1007 15.7557 16.6839 16.1931 16.2457C16.6306 15.8075 17.0468 15.5363 17.6318 15.3099C18.072 15.1381 18.735 14.935 19.9545 14.8795C21.2729 14.8189 21.6689 14.8068 25.0075 14.8068C28.3461 14.8068 28.7425 14.8199 30.062 14.8795C31.2815 14.9351 31.9432 15.1397 32.3847 15.3099C32.9687 15.5363 33.3853 15.8081 33.8234 16.2457C34.2614 16.6833 34.5316 17.1007 34.7589 17.6848C34.9307 18.1252 35.1338 18.7884 35.1892 20.0082C35.2498 21.328 35.2619 21.7231 35.2619 25.0642C35.2619 28.4052 35.2498 28.8003 35.1892 30.1202C35.1337 31.3399 34.9296 32.0029 34.7589 32.4435C34.5316 33.0276 34.2608 33.4444 33.8234 33.8816C33.3859 34.3188 32.9687 34.59 32.3847 34.8174C31.9445 34.9892 31.2815 35.1924 30.062 35.2478C28.7436 35.3085 28.3476 35.3206 25.0075 35.3206C21.6674 35.3206 21.2725 35.3085 19.9545 35.2478ZM19.8509 12.6287C18.5194 12.6894 17.6096 12.9006 16.815 13.2098C15.9921 13.5292 15.2955 13.9577 14.5994 14.6529C13.9032 15.3481 13.476 16.0461 13.1567 16.8692C12.8475 17.6645 12.6364 18.5741 12.5757 19.906C12.5141 21.24 12.5 21.6664 12.5 25.0641C12.5 28.4617 12.5141 28.8882 12.5757 30.2221C12.6364 31.5541 12.8475 32.4636 13.1567 33.2589C13.476 34.0816 13.9033 34.7803 14.5994 35.4752C15.2954 36.1701 15.9921 36.598 16.815 36.9183C17.6111 37.2276 18.5194 37.4388 19.8509 37.4994C21.1852 37.5601 21.6109 37.5752 25.0075 37.5752C28.4041 37.5752 28.8305 37.5611 30.1641 37.4994C31.4957 37.4388 32.4049 37.2276 33.2 36.9183C34.0224 36.598 34.7195 36.1704 35.4156 35.4752C36.1118 34.78 36.5381 34.0816 36.8583 33.2589C37.1675 32.4636 37.3796 31.554 37.4393 30.2221C37.4999 28.8872 37.514 28.4617 37.514 25.0641C37.514 21.6664 37.4999 21.24 37.4393 19.906C37.3786 18.574 37.1675 17.664 36.8583 16.8692C36.5381 16.0466 36.1107 15.3492 35.4156 14.6529C34.7206 13.9566 34.0224 13.5292 33.201 13.2098C32.4049 12.9006 31.4956 12.6884 30.1651 12.6287C28.8315 12.5681 28.4051 12.553 25.0085 12.553C21.6119 12.553 21.1852 12.5671 19.8509 12.6287Z" fill="white"/>
<defs>
<linearGradient id="paint0_linear_88_651" x1="49.039" y1="50" x2="-0.960998" y2="-1.34586e-06" gradientUnits="userSpaceOnUse">
<stop stop-color="#FBE18A"/>
<stop offset="0.21" stop-color="#FCBB45"/>
<stop offset="0.38" stop-color="#F75274"/>
<stop offset="0.52" stop-color="#D53692"/>
<stop offset="0.74" stop-color="#8F39CE"/>
<stop offset="1" stop-color="#5B4FE9"/>
</linearGradient>
</defs>
</svg>
