<svg width="38" height="50" viewBox="0 0 38 50" fill="none" xmlns="http://www.w3.org/2000/svg">
<path d="M21.5645 48.8147C26.5742 42.5452 38 27.3499 38 18.8147C38 8.46313 29.6016 0.0646973 19.25 0.0646973C8.89844 0.0646973 0.5 8.46313 0.5 18.8147C0.5 27.3499 11.9258 42.5452 16.9355 48.8147C18.1367 50.3088 20.3633 50.3088 21.5645 48.8147ZM19.25 12.5647C20.9076 12.5647 22.4973 13.2232 23.6694 14.3953C24.8415 15.5674 25.5 17.1571 25.5 18.8147C25.5 20.4723 24.8415 22.062 23.6694 23.2341C22.4973 24.4062 20.9076 25.0647 19.25 25.0647C17.5924 25.0647 16.0027 24.4062 14.8306 23.2341C13.6585 22.062 13 20.4723 13 18.8147C13 17.1571 13.6585 15.5674 14.8306 14.3953C16.0027 13.2232 17.5924 12.5647 19.25 12.5647Z" fill="#E6382D"/>
</svg>
