<svg width="77" height="30" viewBox="0 0 77 30" fill="none" xmlns="http://www.w3.org/2000/svg">
<path d="M12.4207 13.626C11.2447 13.626 10.1647 13.35 9.18068 12.798C8.19668 12.246 7.41668 11.484 6.84068 10.512C6.26468 9.528 5.97668 8.418 5.97668 7.182C5.97668 5.958 6.26468 4.86 6.84068 3.888C7.41668 2.904 8.19668 2.136 9.18068 1.584C10.1647 1.032 11.2447 0.756 12.4207 0.756C13.6087 0.756 14.6887 1.032 15.6607 1.584C16.6447 2.136 17.4187 2.904 17.9827 3.888C18.5587 4.86 18.8467 5.958 18.8467 7.182C18.8467 8.418 18.5587 9.528 17.9827 10.512C17.4187 11.484 16.6447 12.246 15.6607 12.798C14.6767 13.35 13.5967 13.626 12.4207 13.626ZM12.4207 11.376C13.1767 11.376 13.8427 11.208 14.4187 10.872C14.9947 10.524 15.4447 10.032 15.7687 9.396C16.0927 8.76 16.2547 8.022 16.2547 7.182C16.2547 6.342 16.0927 5.61 15.7687 4.986C15.4447 4.35 14.9947 3.864 14.4187 3.528C13.8427 3.192 13.1767 3.024 12.4207 3.024C11.6647 3.024 10.9927 3.192 10.4047 3.528C9.82868 3.864 9.37868 4.35 9.05468 4.986C8.73068 5.61 8.56868 6.342 8.56868 7.182C8.56868 8.022 8.73068 8.76 9.05468 9.396C9.37868 10.032 9.82868 10.524 10.4047 10.872C10.9927 11.208 11.6647 11.376 12.4207 11.376ZM27.2015 13.5L24.4295 8.604H23.2415V13.5H20.7215V0.936H25.4375C26.4095 0.936 27.2375 1.11 27.9215 1.458C28.6055 1.794 29.1155 2.256 29.4515 2.844C29.7995 3.42 29.9735 4.068 29.9735 4.788C29.9735 5.616 29.7335 6.366 29.2535 7.038C28.7735 7.698 28.0595 8.154 27.1115 8.406L30.1175 13.5H27.2015ZM23.2415 6.714H25.3475C26.0315 6.714 26.5415 6.552 26.8775 6.228C27.2135 5.892 27.3815 5.43 27.3815 4.842C27.3815 4.266 27.2135 3.822 26.8775 3.51C26.5415 3.186 26.0315 3.024 25.3475 3.024H23.2415V6.714ZM34.7727 0.936V13.5H32.2527V0.936H34.7727ZM46.0105 4.716C45.7225 4.188 45.3265 3.786 44.8225 3.51C44.3185 3.234 43.7305 3.096 43.0585 3.096C42.3145 3.096 41.6545 3.264 41.0785 3.6C40.5025 3.936 40.0525 4.416 39.7285 5.04C39.4045 5.664 39.2425 6.384 39.2425 7.2C39.2425 8.04 39.4045 8.772 39.7285 9.396C40.0645 10.02 40.5265 10.5 41.1145 10.836C41.7025 11.172 42.3865 11.34 43.1665 11.34C44.1265 11.34 44.9125 11.088 45.5245 10.584C46.1365 10.068 46.5385 9.354 46.7305 8.442H42.4105V6.516H49.2145V8.712C49.0465 9.588 48.6865 10.398 48.1345 11.142C47.5825 11.886 46.8685 12.486 45.9925 12.942C45.1285 13.386 44.1565 13.608 43.0765 13.608C41.8645 13.608 40.7665 13.338 39.7825 12.798C38.8105 12.246 38.0425 11.484 37.4785 10.512C36.9265 9.54 36.6505 8.436 36.6505 7.2C36.6505 5.964 36.9265 4.86 37.4785 3.888C38.0425 2.904 38.8105 2.142 39.7825 1.602C40.7665 1.05 41.8585 0.774 43.0585 0.774C44.4745 0.774 45.7045 1.122 46.7485 1.818C47.7925 2.502 48.5125 3.468 48.9085 4.716H46.0105ZM53.5989 2.97V6.12H57.8289V8.118H53.5989V11.448H58.3689V13.5H51.0789V0.917999H58.3689V2.97H53.5989ZM71.405 13.5H68.885L63.179 4.878V13.5H60.659V0.917999H63.179L68.885 9.558V0.917999H71.405V13.5ZM6.17747 21.136V22.024H3.89747V29.5H2.80547V22.024H0.513469V21.136H6.17747ZM10.3897 29.608C9.77366 29.608 9.21366 29.468 8.70966 29.188C8.21366 28.908 7.82166 28.512 7.53366 28C7.25366 27.48 7.11366 26.88 7.11366 26.2C7.11366 25.528 7.25766 24.936 7.54566 24.424C7.84166 23.904 8.24166 23.508 8.74566 23.236C9.24966 22.956 9.81366 22.816 10.4377 22.816C11.0617 22.816 11.6257 22.956 12.1297 23.236C12.6337 23.508 13.0297 23.9 13.3177 24.412C13.6137 24.924 13.7617 25.52 13.7617 26.2C13.7617 26.88 13.6097 27.48 13.3057 28C13.0097 28.512 12.6057 28.908 12.0937 29.188C11.5817 29.468 11.0137 29.608 10.3897 29.608ZM10.3897 28.648C10.7817 28.648 11.1497 28.556 11.4937 28.372C11.8377 28.188 12.1137 27.912 12.3217 27.544C12.5377 27.176 12.6457 26.728 12.6457 26.2C12.6457 25.672 12.5417 25.224 12.3337 24.856C12.1257 24.488 11.8537 24.216 11.5177 24.04C11.1817 23.856 10.8177 23.764 10.4257 23.764C10.0257 23.764 9.65766 23.856 9.32166 24.04C8.99366 24.216 8.72966 24.488 8.52966 24.856C8.32966 25.224 8.22966 25.672 8.22966 26.2C8.22966 26.736 8.32566 27.188 8.51766 27.556C8.71766 27.924 8.98166 28.2 9.30966 28.384C9.63766 28.56 9.99766 28.648 10.3897 28.648ZM21.0294 22.924V29.5H19.9374V28.528C19.7294 28.864 19.4374 29.128 19.0614 29.32C18.6934 29.504 18.2854 29.596 17.8374 29.596C17.3254 29.596 16.8654 29.492 16.4574 29.284C16.0494 29.068 15.7254 28.748 15.4854 28.324C15.2534 27.9 15.1374 27.384 15.1374 26.776V22.924H16.2174V26.632C16.2174 27.28 16.3814 27.78 16.7094 28.132C17.0374 28.476 17.4854 28.648 18.0534 28.648C18.6374 28.648 19.0974 28.468 19.4334 28.108C19.7694 27.748 19.9374 27.224 19.9374 26.536V22.924H21.0294ZM23.9652 23.992C24.1572 23.616 24.4292 23.324 24.7812 23.116C25.1412 22.908 25.5772 22.804 26.0892 22.804V23.932H25.8012C24.5772 23.932 23.9652 24.596 23.9652 25.924V29.5H22.8732V22.924H23.9652V23.992ZM36.969 29.5L35.877 28.396C35.469 28.82 35.033 29.136 34.569 29.344C34.105 29.544 33.581 29.644 32.997 29.644C32.421 29.644 31.909 29.54 31.461 29.332C31.021 29.124 30.677 28.828 30.429 28.444C30.189 28.06 30.069 27.612 30.069 27.1C30.069 26.516 30.233 26.004 30.561 25.564C30.897 25.116 31.389 24.764 32.037 24.508C31.781 24.204 31.597 23.924 31.485 23.668C31.373 23.412 31.317 23.132 31.317 22.828C31.317 22.476 31.405 22.16 31.581 21.88C31.765 21.592 32.025 21.368 32.361 21.208C32.697 21.048 33.085 20.968 33.525 20.968C33.957 20.968 34.333 21.052 34.653 21.22C34.973 21.388 35.213 21.624 35.373 21.928C35.533 22.224 35.605 22.556 35.589 22.924H34.497C34.505 22.596 34.413 22.34 34.221 22.156C34.029 21.964 33.781 21.868 33.477 21.868C33.157 21.868 32.897 21.96 32.697 22.144C32.505 22.32 32.409 22.548 32.409 22.828C32.409 23.068 32.473 23.3 32.601 23.524C32.737 23.748 32.961 24.024 33.273 24.352L35.769 26.86L35.985 26.524L36.801 25.156H37.977L36.993 26.86C36.857 27.1 36.697 27.352 36.513 27.616L38.397 29.5H36.969ZM32.997 28.708C33.429 28.708 33.817 28.624 34.161 28.456C34.513 28.288 34.845 28.028 35.157 27.676L32.697 25.204C31.673 25.596 31.161 26.216 31.161 27.064C31.161 27.536 31.329 27.928 31.665 28.24C32.009 28.552 32.453 28.708 32.997 28.708ZM47.7673 21.136V22.024H45.4873V29.5H44.3953V22.024H42.1033V21.136H47.7673ZM50.2035 23.992C50.3955 23.616 50.6675 23.324 51.0195 23.116C51.3795 22.908 51.8155 22.804 52.3275 22.804V23.932H52.0395C50.8155 23.932 50.2035 24.596 50.2035 25.924V29.5H49.1115V22.924H50.2035V23.992ZM53.1801 26.188C53.1801 25.516 53.3161 24.928 53.5881 24.424C53.8601 23.912 54.2321 23.516 54.7041 23.236C55.1841 22.956 55.7161 22.816 56.3001 22.816C56.8761 22.816 57.3761 22.94 57.8001 23.188C58.2241 23.436 58.5401 23.748 58.7481 24.124V22.924H59.8521V29.5H58.7481V28.276C58.5321 28.66 58.2081 28.98 57.7761 29.236C57.3521 29.484 56.8561 29.608 56.2881 29.608C55.7041 29.608 55.1761 29.464 54.7041 29.176C54.2321 28.888 53.8601 28.484 53.5881 27.964C53.3161 27.444 53.1801 26.852 53.1801 26.188ZM58.7481 26.2C58.7481 25.704 58.6481 25.272 58.4481 24.904C58.2481 24.536 57.9761 24.256 57.6321 24.064C57.2961 23.864 56.9241 23.764 56.5161 23.764C56.1081 23.764 55.7361 23.86 55.4001 24.052C55.0641 24.244 54.7961 24.524 54.5961 24.892C54.3961 25.26 54.2961 25.692 54.2961 26.188C54.2961 26.692 54.3961 27.132 54.5961 27.508C54.7961 27.876 55.0641 28.16 55.4001 28.36C55.7361 28.552 56.1081 28.648 56.5161 28.648C56.9241 28.648 57.2961 28.552 57.6321 28.36C57.9761 28.16 58.2481 27.876 58.4481 27.508C58.6481 27.132 58.7481 26.696 58.7481 26.2ZM64.1454 28.492L66.1854 22.924H67.3494L64.7694 29.5H63.4974L60.9174 22.924H62.0934L64.1454 28.492ZM74.424 25.96C74.424 26.168 74.412 26.388 74.388 26.62H69.132C69.172 27.268 69.392 27.776 69.792 28.144C70.2 28.504 70.692 28.684 71.268 28.684C71.74 28.684 72.132 28.576 72.444 28.36C72.764 28.136 72.988 27.84 73.116 27.472H74.292C74.116 28.104 73.764 28.62 73.236 29.02C72.708 29.412 72.052 29.608 71.268 29.608C70.644 29.608 70.084 29.468 69.588 29.188C69.1 28.908 68.716 28.512 68.436 28C68.156 27.48 68.016 26.88 68.016 26.2C68.016 25.52 68.152 24.924 68.424 24.412C68.696 23.9 69.076 23.508 69.564 23.236C70.06 22.956 70.628 22.816 71.268 22.816C71.892 22.816 72.444 22.952 72.924 23.224C73.404 23.496 73.772 23.872 74.028 24.352C74.292 24.824 74.424 25.36 74.424 25.96ZM73.296 25.732C73.296 25.316 73.204 24.96 73.02 24.664C72.836 24.36 72.584 24.132 72.264 23.98C71.952 23.82 71.604 23.74 71.22 23.74C70.668 23.74 70.196 23.916 69.804 24.268C69.42 24.62 69.2 25.108 69.144 25.732H73.296ZM76.9574 20.62V29.5H75.8654V20.62H76.9574Z" fill="#C1917D"/>
</svg>
