<svg width="50" height="50" viewBox="0 0 50 50" fill="none" xmlns="http://www.w3.org/2000/svg">
<rect width="50" height="50" rx="20" fill="#00D95F"/>
<path d="M12.5 36.5744L14.2937 29.905C12.8471 27.3069 12.3875 24.2752 12.9993 21.3662C13.611 18.4571 15.253 15.8659 17.624 14.0679C19.9949 12.27 22.9359 11.3859 25.907 11.578C28.8782 11.7701 31.6804 13.0254 33.7993 15.1136C35.9182 17.2018 37.2117 19.9828 37.4426 22.9463C37.6734 25.9099 36.826 28.8571 35.0559 31.2472C33.2858 33.6373 30.7117 35.31 27.806 35.9583C24.9003 36.6066 21.8578 36.187 19.2369 34.7766L12.5 36.5744ZM19.5618 32.2809L19.9784 32.5276C21.8768 33.651 24.094 34.1158 26.2846 33.8498C28.4753 33.5837 30.5162 32.6017 32.0894 31.0567C33.6626 29.5117 34.6797 27.4906 34.9821 25.3083C35.2846 23.1259 34.8555 20.905 33.7616 18.9916C32.6678 17.0782 30.9707 15.5798 28.9347 14.7298C26.8988 13.8799 24.6384 13.7262 22.5059 14.2927C20.3733 14.8591 18.4883 16.114 17.1447 17.8617C15.8011 19.6093 15.0743 21.7516 15.0776 23.9547C15.0758 25.7815 15.5818 27.5729 16.5393 29.1295L16.8006 29.5596L15.7979 33.282L19.5618 32.2809Z" fill="white"/>
<path fill-rule="evenodd" clip-rule="evenodd" d="M29.6745 25.6673C29.4302 25.4706 29.1442 25.3322 28.8383 25.2625C28.5324 25.1929 28.2145 25.1939 27.909 25.2654C27.45 25.4558 27.1534 26.1749 26.8568 26.5344C26.7943 26.6206 26.7024 26.6811 26.5984 26.7044C26.4944 26.7278 26.3854 26.7125 26.2919 26.6613C24.6114 26.0042 23.2028 24.7992 22.2949 23.242C22.2175 23.1449 22.1808 23.0215 22.1927 22.8979C22.2045 22.7743 22.264 22.6601 22.3585 22.5793C22.6893 22.2524 22.9322 21.8475 23.0647 21.402C23.0941 20.9106 22.9813 20.4211 22.7398 19.9919C22.5531 19.3903 22.1978 18.8545 21.7159 18.448C21.4673 18.3364 21.1917 18.2989 20.9223 18.3402C20.6529 18.3815 20.4012 18.4997 20.1976 18.6806C19.8441 18.9851 19.5635 19.3648 19.3766 19.7919C19.1896 20.2189 19.1009 20.6824 19.1171 21.1482C19.1182 21.4097 19.1514 21.6702 19.216 21.9237C19.38 22.5327 19.6321 23.1146 19.9645 23.6509C20.2043 24.0618 20.466 24.4595 20.7484 24.8424C21.6661 26.1001 22.8197 27.168 24.1451 27.9867C24.8102 28.4028 25.5211 28.7411 26.2636 28.9949C27.035 29.344 27.8867 29.478 28.7282 29.3827C29.2077 29.3102 29.662 29.1212 30.0511 28.8323C30.4402 28.5434 30.7522 28.1635 30.9597 27.7259C31.0816 27.4616 31.1186 27.166 31.0657 26.8799C30.9385 26.2947 30.1547 25.9493 29.6745 25.6673Z" fill="white"/>
</svg>
