<svg width="13" height="13" viewBox="0 0 13 13" fill="none" xmlns="http://www.w3.org/2000/svg">
<path d="M0.5 12.0999L1.36097 8.8986C0.66662 7.65153 0.446017 6.1963 0.739645 4.79996C1.03327 3.40361 1.82144 2.15981 2.95951 1.2968C4.09757 0.43378 5.50921 0.00943507 6.93537 0.101631C8.36154 0.193827 9.70657 0.79638 10.7236 1.79872C11.7407 2.80106 12.3616 4.13595 12.4724 5.55844C12.5832 6.98093 12.1765 8.3956 11.3268 9.54285C10.4772 10.6901 9.24162 11.493 7.84687 11.8042C6.45212 12.1154 4.99175 11.914 3.73373 11.237L0.5 12.0999ZM3.88966 10.039L4.08965 10.1575C5.00085 10.6967 6.06513 10.9198 7.11663 10.7921C8.16812 10.6644 9.14777 10.193 9.9029 9.4514C10.658 8.70981 11.1462 7.73967 11.2914 6.69216C11.4366 5.64465 11.2306 4.57861 10.7056 3.66017C10.1805 2.74173 9.36592 2.02248 8.38868 1.61451C7.41143 1.20654 6.32645 1.13276 5.30282 1.40467C4.27918 1.67658 3.3744 2.27891 2.72946 3.11779C2.08452 3.95667 1.73565 4.98498 1.73722 6.04247C1.73637 6.9193 1.97927 7.77917 2.43888 8.52635L2.5643 8.73278L2.08297 10.5196L3.88966 10.039Z" fill="white"/>
</svg>
